File Name

Laid To Rest 2009 1080p BRRip H264.mp4

File Size
Format : MPEG-4
Format profile : Base Media
Codec ID : isom
File size : 3.72 GiB
Duration : 1h 25mn
Overall bit rate : 6 192 Kbps

Video
ID : 1
Format : AVC
Format/Info : Advanced Video Codec
Format profile : High@L4.1
Format settings, CABAC : Yes
Format settings, ReFrames : 3 frames
Codec ID : avc1
Codec ID/Info : Advanced Video Coding
Duration : 1h 25mn
Bit rate mode : Variable
Bit rate : 5 550 Kbps
Maximum bit rate : 26.5 Mbps
Width : 1 920 pixels
Height : 1 080 pixels
Display aspect ratio : 16:9
Frame rate mode : Constant
Frame rate : 25.000 fps
Resolution : 24 bits
Colorimetry : 4:2:0
Scan type : Progressive
Bits/(Pixel*Frame) : 0.107
Stream size : 3.33 GiB (90%)

Audio #1
ID : 2
Format : AAC
Format/Info : Advanced Audio Codec
Format version : Version 4
Format profile : LC
Format settings, SBR : No
Codec ID : 40
Duration : 1h 25mn
Bit rate mode : Variable
Bit rate : 192 Kbps
Maximum bit rate : 199 Kbps
Channel(s) : 2 channels
Channel positions : L R
Sampling rate : 48.0 KHz
Resolution : 16 bits
Stream size : 117 MiB (3%)

Audio #2
ID : 3
Format : AAC
Format/Info : Advanced Audio Codec
Format version : Version 4
Format profile : LC
Format settings, SBR : No
Codec ID : 40
Duration : 1h 25mn
Bit rate mode : Variable
Bit rate : 448 Kbps
Maximum bit rate : 460 Kbps
Channel(s) : 6 channels
Channel positions : Front: L C R, Rear: L R, LFE
Sampling rate : 48.0 KHz
Resolution : 16 bits
Stream size : 275 MiB (7%)

English SRT : ----

Language : English



 
http://www.imdb.com/title/tt1228933/

Release Date: ==== 

Genre: Horror | Thriller 

Plot: A terrifying story of a young girl who wakes up in a casket with a traumatic head injury and no memory of her identity... 

Cast: 
Bobbi Sue Luther ... The Girl
Kevin Gage ... Tucker
Lena Headey ... Cindy
Sean Whalen ... Steven
Richard Lynch ... Mr. Jones
Johnathon Schaech ... Johnny
Thomas Dekker ... Tommy
Nick Principe ... Chrome Skull
Jana Kramer ... Jamie
Lucas Till ... Young Store Clerk
Anthony Fitzgerald ... Anthony
Seri DeYoung ... Bound Girl




Screenshots:
 
http://www.imagebam.com/image/46507892778329
 
http://www.imagebam.com/image/9cacbb92778404
 
http://www.imagebam.com/image/d01cc792778590
 
http://www.imagebam.com/image/0f40d992778711
 
http://www.imagebam.com/image/f15c6992778768
 
http://www.imagebam.com/image/53700892778914
 
http://www.imagebam.com/image/46fa6392779060
 
http://www.imagebam.com/image/53804292779131
 
http://www.imagebam.com/image/fe05a292779264